<svg width="196" height="196" viewBox="0 0 196 196" fill="none" xmlns="http://www.w3.org/2000/svg">
<path d="M196 98C196 152.124 152.124 196 98 196C43.8761 196 0 152.124 0 98C0 43.8761 43.8761 0 98 0C152.124 0 196 43.8761 196 98Z" fill="#A0E74B"/>
<path d="M167.644 101.728C167.485 104.012 169.065 105.432 171.374 105.669L167.479 105.876L167.402 106.979L172.721 107.349L173.047 102.659L171.591 102.558L171.385 105.516C169.985 105.049 169.103 104.217 169.224 102.485C169.365 100.462 170.905 99.5679 173.082 99.7193C175.213 99.8675 176.647 100.953 176.498 103.099C176.382 104.755 175.302 105.665 173.963 105.88L174.931 107.457C176.835 106.881 177.988 105.359 178.139 103.198C178.361 100.009 176.23 98.0899 173.21 97.8798C169.945 97.6527 167.827 99.0919 167.644 101.728Z" fill="#151515"/>
<path d="M165.031 117.986L166.521 118.36L167.87 112.979L170.732 113.697L169.615 118.153L171.105 118.527L172.222 114.07L174.875 114.735L173.527 120.116L175.017 120.49L176.788 113.425L166.802 110.921L165.031 117.986Z" fill="#151515"/>
<path d="M162.292 125.393L170.359 128.805L169.125 131.72L170.541 132.319L173.677 124.903L172.262 124.305L171.035 127.206L162.968 123.794L162.292 125.393Z" fill="#151515"/>
<path d="M155.091 138.289L163.482 144.253L164.488 142.838L156.097 136.873L155.091 138.289Z" fill="#151515"/>
<path d="M151.493 143.045L155.673 146.876L157.139 148.051L155.429 147.756L148.057 146.795L146.977 147.973L154.568 154.928L155.741 153.648L151.572 149.828L150.06 148.589L151.935 148.931L159.166 149.91L160.256 148.72L152.666 141.765L151.493 143.045Z" fill="#151515"/>
<path d="M135.535 156.949L140.264 164.321L137.599 166.03L138.429 167.324L145.206 162.977L144.377 161.683L141.725 163.384L136.996 156.012L135.535 156.949Z" fill="#151515"/>
<path d="M125.895 161.939C123.13 163.133 122.159 166.079 123.341 168.816C124.516 171.539 127.326 172.852 130.091 171.659C132.87 170.459 133.827 167.518 132.651 164.796C131.47 162.059 128.674 160.739 125.895 161.939ZM126.538 163.469C128.513 162.616 130.126 163.56 130.973 165.521C131.813 167.467 131.401 169.302 129.426 170.155C127.451 171.008 125.846 170.044 125.005 168.097C124.159 166.136 124.563 164.321 126.538 163.469Z" fill="#151515"/>
<path d="M114.435 165.778C111.698 166.42 110.753 168.11 111.465 171.147L112.813 176.891L114.488 176.498L113.137 170.739C112.67 168.749 113.124 167.79 114.8 167.397C116.445 167.011 117.308 167.661 117.775 169.651L119.126 175.41L120.801 175.017L119.454 169.273C118.741 166.236 117.113 165.15 114.435 165.778Z" fill="#151515"/>
<path d="M102.352 167.619C100.083 167.759 98.5913 169.037 97.9937 171.075L99.5649 172.086C99.7922 170.533 100.675 169.37 102.439 169.261C104.555 169.13 105.646 170.587 105.777 172.703C105.908 174.835 105.004 176.4 102.888 176.53C101.124 176.639 100.106 175.609 99.6882 174.08L98.2534 175.277C99.0984 177.242 100.735 178.311 103.005 178.17C106.164 177.975 107.8 175.549 107.617 172.589C107.434 169.63 105.512 167.424 102.352 167.619Z" fill="#151515"/>
<path d="M92.7162 167.737L92.1985 172.194L87.2838 171.623L87.8015 167.167L86.0767 166.966L84.8889 177.193L86.6137 177.393L87.1065 173.15L92.0213 173.721L91.5284 177.964L93.2532 178.164L94.4409 167.938L92.7162 167.737Z" fill="#151515"/>
<path d="M71.3972 166.477L70.933 167.714L74.5439 169.069L75.0082 167.832L71.3972 166.477Z" fill="#151515"/>
<path d="M60.2878 156.69C58.3836 155.419 56.3674 156.087 55.0152 157.974L56.769 154.489L55.8489 153.874L52.8884 158.309L56.7989 160.92L57.6094 159.706L55.143 158.059C56.2432 157.075 57.4026 156.722 58.8467 157.686C60.5336 158.813 60.5452 160.594 59.3337 162.409C58.1477 164.185 56.4937 164.891 54.7046 163.697C53.3244 162.775 53.0696 161.386 53.5478 160.116L51.6981 160.175C51.2536 162.114 52.0026 163.87 53.8045 165.073C56.4626 166.847 59.1864 165.95 60.8672 163.432C62.6845 160.71 62.4858 158.158 60.2878 156.69Z" fill="#151515"/>
<path d="M47.602 146.481L46.5434 147.595L50.5643 151.417L48.5319 153.555L45.2016 150.39L44.1431 151.504L47.4733 154.669L45.5891 156.651L41.5683 152.83L40.5097 153.944L45.7892 158.961L52.8814 151.499L47.602 146.481Z" fill="#151515"/>
<path d="M42.4486 140.364L35.4997 145.696L33.5729 143.184L32.3538 144.12L37.255 150.508L38.4741 149.572L36.5567 147.073L43.5056 141.742L42.4486 140.364Z" fill="#151515"/>
<path d="M34.8026 127.8L25.4768 132.161L26.2123 133.734L35.5381 129.373L34.8026 127.8Z" fill="#151515"/>
<path d="M32.4235 122.32L27.0239 124.05L25.2761 124.739L26.3803 123.401L30.8718 117.476L30.3842 115.954L20.58 119.095L21.1097 120.749L26.4947 119.024L28.3203 118.326L27.0933 119.784L22.6568 125.578L23.149 127.114L32.9533 123.973L32.4235 122.32Z" fill="#151515"/>
<path d="M28.2587 101.733L19.5129 102.206L19.342 99.0451L17.8077 99.128L18.2424 107.168L19.7768 107.085L19.6067 103.94L28.3524 103.467L28.2587 101.733Z" fill="#151515"/>
<path d="M28.6944 90.5585C29.0304 87.5656 26.9543 85.2606 23.9919 84.928C21.0449 84.5972 18.5094 86.3845 18.1734 89.3774C17.8358 92.3856 19.9135 94.6753 22.8606 95.0062C25.823 95.3387 28.3567 93.5666 28.6944 90.5585ZM27.047 90.3581C26.807 92.4958 25.1871 93.4273 23.0646 93.189C20.9574 92.9525 19.5691 91.6834 19.809 89.5456C20.049 87.4078 21.6824 86.4933 23.7897 86.7299C25.9122 86.9681 27.2869 88.2203 27.047 90.3581Z" fill="#151515"/>
<path d="M30.97 78.8909C31.767 76.1943 30.7668 74.5367 27.7754 73.6526L22.1169 71.9803L21.6291 73.6307L27.3024 75.3074C29.2622 75.8866 29.8707 76.7554 29.3829 78.4058C28.9038 80.0268 27.9121 80.4547 25.9523 79.8755L20.279 78.1987L19.7913 79.8491L25.4498 81.5215C28.4411 82.4056 30.1904 81.5286 30.97 78.8909Z" fill="#151515"/>
<path d="M35.3402 67.4247C36.3492 65.3866 35.9842 63.4571 34.5144 61.9236L32.8548 62.7822C34.0887 63.7532 34.6575 65.0978 33.8736 66.6814C32.9328 68.5818 31.1263 68.802 29.226 67.8612C27.3118 66.9135 26.4055 65.3503 27.3463 63.45C28.1303 61.8664 29.5306 61.4966 31.0646 61.896L30.7413 60.0556C28.6169 59.8098 26.8749 60.6962 25.866 62.7343C24.4616 65.5711 25.7501 68.1979 28.4079 69.5136C31.0656 70.8294 33.9358 70.2614 35.3402 67.4247Z" fill="#151515"/>
<path d="M39.921 59.1039L36.312 56.4381L39.2517 52.4583L42.8607 55.1241L43.8923 53.7274L35.6113 47.6107L34.5797 49.0073L38.0157 51.5453L35.076 55.5251L31.64 52.9871L30.6084 54.3838L38.8894 60.5005L39.921 59.1039Z" fill="#151515"/>
<path d="M51.3556 41.3437L50.5062 40.3314L47.5518 42.8105L48.4012 43.8228L51.3556 41.3437Z" fill="#151515"/>
<path d="M65.4681 36.3337C67.5123 35.3028 67.9243 33.2192 66.9481 31.1129L69.1171 34.3558L70.1049 33.8576L67.7039 29.0968L63.5057 31.2141L64.163 32.5175L66.8109 31.1821C67.1251 32.6241 66.8612 33.8069 65.3109 34.5888C63.4999 35.5022 61.9438 34.6348 60.9613 32.6866C59.9995 30.7796 60.1995 28.9922 62.1203 28.0235C63.602 27.2762 64.9367 27.7389 65.8062 28.7804L66.6664 27.1419C65.198 25.8001 63.3007 25.5868 61.3662 26.5624C58.5125 28.0016 57.9518 30.8142 59.3149 33.517C60.7887 36.4393 63.1083 37.5239 65.4681 36.3337Z" fill="#151515"/>
<path d="M80.261 30.4014L79.8144 28.9312L74.5068 30.5436L73.6493 27.7207L78.0453 26.3853L77.5986 24.915L73.2026 26.2505L72.4076 23.6335L77.7151 22.0211L77.2685 20.5509L70.2996 22.668L73.2921 32.5185L80.261 30.4014Z" fill="#151515"/>
<path d="M88.1239 28.8773L86.9132 20.2028L90.0481 19.7653L89.8357 18.2434L81.8613 19.3564L82.0737 20.8783L85.1935 20.4428L86.4042 29.1173L88.1239 28.8773Z" fill="#151515"/>
<path d="M103.151 28.3686L103.984 18.1073L102.253 17.9668L101.42 28.2281L103.151 28.3686Z" fill="#151515"/>
<path d="M109.289 29.012L110.458 23.4637L110.724 21.604L111.34 23.2256L114.266 30.0602L115.83 30.3895L117.951 20.3154L116.252 19.9575L115.087 25.4908L114.79 27.4225L114.13 25.6348L111.29 18.9126L109.712 18.5801L107.59 28.6542L109.289 29.012Z" fill="#151515"/>
<path d="M129.48 35.6582L133.424 27.8379L136.25 29.2633L136.942 27.8913L129.753 24.2656L129.061 25.6376L131.873 27.0561L127.929 34.8763L129.48 35.6582Z" fill="#151515"/>
<path d="M138.513 41.2895C140.948 43.0611 143.978 42.396 145.732 39.9854C147.476 37.5871 147.176 34.4996 144.74 32.728C142.292 30.9473 139.275 31.6214 137.53 34.0197C135.777 36.4303 136.065 39.5088 138.513 41.2895ZM139.501 39.9565C137.762 38.6911 137.753 36.8225 139.009 35.0953C140.256 33.3805 142.046 32.8011 143.786 34.0666C145.525 35.332 145.513 37.204 144.265 38.9188C143.009 40.646 141.241 41.222 139.501 39.9565Z" fill="#151515"/>
<path d="M147.623 49.0833C149.575 51.1075 151.51 51.0557 153.756 48.8905L158.003 44.7947L156.809 43.5559L152.55 47.6623C151.079 49.0809 150.023 49.1813 148.829 47.9424C147.655 46.7257 147.773 45.652 149.244 44.2334L153.502 40.127L152.307 38.8882L148.06 42.984C145.815 45.1492 145.714 47.1034 147.623 49.0833Z" fill="#151515"/>
<path d="M155.588 58.7013C156.865 60.5833 158.724 61.2163 160.782 60.6927L160.852 58.8255C159.4 59.4209 157.949 59.2535 156.957 57.7911C155.767 56.0362 156.465 54.3557 158.22 53.1654C159.988 51.9665 161.795 51.9478 162.985 53.7028C163.977 55.1652 163.609 56.566 162.506 57.7042L164.266 58.3294C165.527 56.6018 165.614 54.6492 164.337 52.7671C162.56 50.1475 159.64 49.9748 157.185 51.6394C154.731 53.3041 153.811 56.0816 155.588 58.7013Z" fill="#151515"/>
<path d="M160.427 66.4854L164.519 64.6456L166.548 69.1582L162.456 70.9981L163.168 72.5818L172.557 68.3601L171.845 66.7765L167.949 68.5281L165.92 64.0155L169.816 62.2638L169.104 60.6802L159.715 64.9018L160.427 66.4854Z" fill="#151515"/>
<path d="M170.357 85.4959L171.657 85.2583L170.963 81.4644L169.663 81.702L170.357 85.4959Z" fill="#151515"/>
<g clip-path="url(#clip0_12690_15368)">
<path fill-rule="evenodd" clip-rule="evenodd" d="M81.8528 79.0911C83.9632 81.2015 86.4296 82.9146 89.1112 84.1325C91.7928 85.3504 94.6371 86.0493 97.4816 86.1893C100.326 86.3293 103.115 85.9076 105.69 84.9484C108.264 83.9892 110.574 82.5112 112.486 80.5987L112.554 80.6669L112.554 80.6668L114.864 82.9767L114.864 82.9768L114.932 83.0449C113.02 84.9573 111.542 87.2666 110.582 89.8411C109.623 92.4156 109.202 95.2047 109.342 98.0493C109.482 100.894 110.181 103.738 111.398 106.42C112.616 109.101 114.329 111.568 116.44 113.678L114.078 116.04C105.361 107.322 104.94 96.1734 110.527 87.3138L84.0657 113.775L81.7558 111.465L108.217 85.0037C99.3577 90.591 88.2087 90.1701 79.4912 81.4526L81.8528 79.0911Z" fill="#151515"/>
</g>
<defs>
<clipPath id="clip0_12690_15368">
<rect width="43.5556" height="43.5556" fill="white" transform="translate(67.5114 97.2207) rotate(-45)"/>
</clipPath>
</defs>
</svg>
