<svg width="28" height="28" viewBox="0 0 28 28" fill="none" xmlns="http://www.w3.org/2000/svg">
<rect width="28" height="28" rx="14" fill="#A0E74B"/>
<g clip-path="url(#clip0_15676_261)">
<path fill-rule="evenodd" clip-rule="evenodd" d="M14.3802 6.13892C14.3802 7.09824 14.5514 8.04817 14.8841 8.93447C15.2168 9.82077 15.7044 10.6261 16.3191 11.3044C16.9338 11.9828 17.6635 12.5209 18.4667 12.888C19.2698 13.2551 20.1307 13.444 21 13.444V13.475H21V14.525H21V14.556C20.1307 14.556 19.2698 14.7449 18.4667 15.112C17.6635 15.4792 16.9338 16.0173 16.3191 16.6956C15.7044 17.3739 15.2168 18.1793 14.8841 19.0656C14.5514 19.9518 14.3802 20.9018 14.3802 21.8611H13.3067C13.3067 17.8984 15.745 15.2688 19.0285 14.525L7 14.525L7 13.475L19.0286 13.475C15.745 12.7313 13.3067 10.1016 13.3067 6.13892H14.3802Z" fill="#151515"/>
</g>
<defs>
<clipPath id="clip0_15676_261">
<rect width="14" height="14" fill="white" transform="translate(7 7)"/>
</clipPath>
</defs>
</svg>
