<svg width="28" height="28" viewBox="0 0 28 28" fill="none" xmlns="http://www.w3.org/2000/svg">
<rect width="28" height="28" rx="14" fill="#151515"/>
<g clip-path="url(#clip0_15733_3673)">
<path fill-rule="evenodd" clip-rule="evenodd" d="M14.3802 6.13867C14.3802 7.098 14.5514 8.04792 14.8841 8.93422C15.2168 9.82052 15.7044 10.6258 16.3191 11.3042C16.9338 11.9825 17.6635 12.5206 18.4667 12.8877C19.2698 13.2548 20.1307 13.4438 21 13.4438V13.4748H21V14.5248H21V14.5557C20.1307 14.5557 19.2698 14.7447 18.4667 15.1118C17.6635 15.4789 16.9338 16.017 16.3191 16.6954C15.7044 17.3737 15.2168 18.179 14.8841 19.0653C14.5514 19.9516 14.3802 20.9015 14.3802 21.8609H13.3067C13.3067 17.8982 15.745 15.2686 19.0285 14.5248L7 14.5248L7 13.4748L19.0286 13.4748C15.745 12.731 13.3067 10.1014 13.3067 6.13867H14.3802Z" fill="white"/>
</g>
<defs>
<clipPath id="clip0_15733_3673">
<rect width="14" height="14" fill="white" transform="translate(7 7)"/>
</clipPath>
</defs>
</svg>
