<svg width="24" height="24" viewBox="0 0 24 24" fill="none" xmlns="http://www.w3.org/2000/svg">
<path d="M11.2966 4.90088C11.5382 4.24792 12.4618 4.24792 12.7034 4.90088L14.3111 9.24575C14.3871 9.45104 14.549 9.6129 14.7542 9.68886L19.0991 11.2966C19.7521 11.5382 19.7521 12.4618 19.0991 12.7034L14.7542 14.3111C14.549 14.3871 14.3871 14.549 14.3111 14.7542L12.7034 19.0991C12.4618 19.7521 11.5382 19.7521 11.2966 19.0991L9.68886 14.7542C9.6129 14.549 9.45104 14.3871 9.24575 14.3111L4.90088 12.7034C4.24792 12.4618 4.24792 11.5382 4.90088 11.2966L9.24575 9.68886C9.45104 9.6129 9.6129 9.45104 9.68886 9.24575L11.2966 4.90088Z" fill="#A0E74B"/>
</svg>
