<svg width="48" height="48" viewBox="0 0 48 48" fill="none" xmlns="http://www.w3.org/2000/svg">
<g clip-path="url(#clip0_15713_5293)">
<rect width="48" height="48" rx="24" fill="#2B2B2B"/>
<g clip-path="url(#clip1_15713_5293)">
<path fill-rule="evenodd" clip-rule="evenodd" d="M12.9958 23.4782C14.3115 23.4782 15.6143 23.2434 16.8297 22.7872C18.0452 22.3309 19.1497 21.6622 20.08 20.8192C21.0103 19.9761 21.7482 18.9753 22.2517 17.8739C22.7552 16.7724 23.0143 15.5919 23.0143 14.3996H23.0568V14.3996H24.4968V14.3996H24.5392C24.5392 15.5919 24.7984 16.7724 25.3019 17.8739C25.8053 18.9753 26.5433 19.9761 27.4736 20.8192C28.4039 21.6622 29.5083 22.3309 30.7238 22.7872C31.9393 23.2434 33.2421 23.4782 34.5577 23.4782V24.9504C29.1232 24.9504 25.5168 21.6065 24.4968 17.1034L24.4968 33.5996L23.0568 33.5996L23.0568 17.1033C22.0368 21.6064 18.4304 24.9504 12.9958 24.9504V23.4782Z" fill="white"/>
</g>
</g>
<defs>
<clipPath id="clip0_15713_5293">
<rect width="48" height="48" rx="24" fill="white"/>
</clipPath>
<clipPath id="clip1_15713_5293">
<rect width="19.2" height="19.2" fill="white" transform="matrix(0 -1 1 0 14.1768 33.5996)"/>
</clipPath>
</defs>
</svg>
