<svg width="64" height="64" viewBox="0 0 64 64" fill="none" xmlns="http://www.w3.org/2000/svg">
<g opacity="0.8">
<g clip-path="url(#clip0_12989_11170)">
<rect x="0.5" y="0.5" width="63" height="63" rx="31.5" stroke="#FAFFF4"/>
<g clip-path="url(#clip1_12989_11170)">
<path fill-rule="evenodd" clip-rule="evenodd" d="M22.0287 21.3442C23.2691 22.5846 24.7188 23.5914 26.2949 24.3073C27.871 25.0231 29.5428 25.4339 31.2147 25.5162C32.8866 25.5985 34.5259 25.3506 36.0391 24.7868C37.5522 24.2231 38.9096 23.3543 40.0336 22.2303L40.0737 22.2704L40.0737 22.2703L41.4313 23.628L41.4313 23.628L41.4713 23.668C40.3473 24.7921 39.4786 26.1494 38.9148 27.6626C38.351 29.1757 38.1032 30.815 38.1855 32.4869C38.2677 34.1588 38.6785 35.8306 39.3944 37.4067C40.1102 38.9828 41.1171 40.4325 42.3575 41.6729L40.9694 43.0609C35.8457 37.9372 35.5983 31.3844 38.8822 26.1771L23.3294 41.7299L21.9718 40.3723L37.5247 24.8194C32.3173 28.1033 25.7645 27.8559 20.6407 22.7322L22.0287 21.3442Z" fill="white"/>
</g>
</g>
</g>
<defs>
<clipPath id="clip0_12989_11170">
<rect width="64" height="64" rx="32" fill="white"/>
</clipPath>
<clipPath id="clip1_12989_11170">
<rect width="25.6" height="25.6" fill="white" transform="translate(13.5996 32) rotate(-45)"/>
</clipPath>
</defs>
</svg>
